<svg width="32" height="33" viewBox="0 0 32 33" fill="none" xmlns="http://www.w3.org/2000/svg">
<path d="M22.6667 8.50004C22.6667 4.81814 19.6819 1.83337 16 1.83337C12.3181 1.83337 9.33332 4.81814 9.33332 8.50004M22.6667 8.50004H24.4116C27.1925 8.50004 28.583 8.50004 29.378 9.38825C30.173 10.2765 30.0194 11.6584 29.7123 14.4223L29.3179 17.9725C28.691 23.6142 28.3776 26.4351 26.4792 28.1342C24.5808 29.8334 21.7205 29.8334 16 29.8334C10.2795 29.8334 7.41919 29.8334 5.5208 28.1342C3.6224 26.4351 3.30897 23.6142 2.68211 17.9725L2.28765 14.4223C1.98055 11.6584 1.827 10.2765 2.62198 9.38825C3.41697 8.50004 4.80743 8.50004 7.58836 8.50004H9.33332M22.6667 8.50004H9.33332M24 13.8334H7.99999" stroke="white" stroke-width="1.5" stroke-linecap="round"/>
</svg>
