<svg width="135" height="135" viewBox="0 0 135 135" fill="none" xmlns="http://www.w3.org/2000/svg">
<rect width="135" height="135" rx="67.5" fill="#8E6D5D"/>
<path d="M41.08 109.83C40.6524 109.572 40.3064 109.199 40.0817 108.753C39.857 108.307 39.7628 107.807 39.81 107.31C39.87 105.23 39.81 103.12 39.81 101.04C39.7473 100.568 39.8548 100.09 40.1132 99.6901C40.3716 99.2906 40.7641 98.9962 41.22 98.86C41.45 98.79 41.62 98.26 41.62 97.96C41.62 91.78 41.62 85.58 41.62 79.41C41.62 78.07 41.62 76.72 41.62 75.41C41.6036 75.1532 41.6401 74.8958 41.7272 74.6537C41.8143 74.4115 41.9501 74.1899 42.1264 74.0024C42.3026 73.8149 42.5155 73.6656 42.7517 73.5637C42.988 73.4618 43.2427 73.4095 43.5 73.41C43.7531 73.4177 44.0021 73.4758 44.2323 73.581C44.4626 73.6862 44.6696 73.8364 44.841 74.0227C45.0124 74.2091 45.1448 74.4278 45.2305 74.666C45.3162 74.9042 45.3535 75.1572 45.34 75.41V79.77C45.34 80.07 45.34 80.37 45.34 80.71H50.91V76C50.91 74 51.48 73.48 53.46 73.48H63.66V53.85H45.34C45.34 55.49 45.34 57.07 45.34 58.68C45.34 59.92 44.67 60.68 43.63 60.76C43.3624 60.7794 43.0938 60.7409 42.8423 60.6472C42.5909 60.5536 42.3626 60.4069 42.1729 60.2172C41.9831 60.0275 41.8365 59.7991 41.7428 59.5477C41.6491 59.2963 41.6107 59.0276 41.63 58.76C41.63 57.02 41.63 55.31 41.63 53.56C41.6141 53.1215 41.4359 52.7046 41.13 52.39C38.621 49.8884 36.906 46.702 36.2 43.23C36.1307 42.9569 36.1253 42.6716 36.1844 42.3961C36.2434 42.1206 36.3653 41.8625 36.5405 41.6418C36.7156 41.4212 36.9394 41.244 37.1943 41.124C37.4492 41.004 37.7283 40.9444 38.01 40.95C39.22 40.95 40.43 40.95 41.63 40.95C41.8269 40.9289 42.0174 40.8674 42.1894 40.7693C42.3615 40.6712 42.5115 40.5387 42.63 40.38C43.9748 37.8897 45.8816 35.7472 48.1989 34.1224C50.5163 32.4977 53.1805 31.4354 55.98 31.02C56.9993 30.8675 58.0296 30.8006 59.06 30.82C60.57 30.82 62.06 30.82 63.69 30.82V27.82C62.4145 27.3105 61.1807 26.7019 60 26C57 24 57 20.43 59.93 18.32C61.6315 17.2307 63.6143 16.6626 65.6344 16.6857C67.6546 16.7088 69.6239 17.3221 71.3 18.45C74.05 20.53 74.05 23.98 71.2 25.93C70.0103 26.6216 68.774 27.2297 67.5 27.75V30.75C69.14 30.75 70.78 30.75 72.39 30.75C75.5424 30.707 78.6499 31.5007 81.3956 33.0501C84.1414 34.5995 86.4271 36.8493 88.02 39.57C88.2341 40.0257 88.5856 40.4028 89.025 40.6485C89.4644 40.8942 89.9697 40.9962 90.47 40.94C92.481 40.8304 94.4976 40.8839 96.5 41.1C98.5891 41.4094 100.501 42.4492 101.896 44.0346C103.291 45.62 104.079 47.6486 104.12 49.76C104.19 59.95 104.12 70.15 104.12 80.31C104.111 81.0326 103.958 81.7461 103.669 82.4083C103.38 83.0706 102.961 83.6683 102.437 84.166C101.913 84.6638 101.295 85.0515 100.619 85.3064C99.9425 85.5613 99.2221 85.6781 98.5 85.65C97.7687 85.6436 97.046 85.4917 96.374 85.2031C95.702 84.9146 95.0942 84.4951 94.586 83.9692C94.0778 83.4433 93.6794 82.8215 93.414 82.14C93.1485 81.4586 93.0214 80.7311 93.04 80C93.04 71.65 93.04 63.33 93.04 55V53.81H89.38V97.81C89.38 98.38 89.38 98.81 90.12 98.99C90.4454 99.0793 90.7298 99.2785 90.9248 99.5538C91.1199 99.8291 91.2136 100.163 91.19 100.5C91.19 103.04 91.26 105.59 91.19 108.14C91.19 108.71 90.52 109.25 90.19 109.79H40.98L41.08 109.83ZM85.79 84.57H45.5V98.76H85.79V84.57ZM67.5 73.44H76.8C79.96 73.44 80.19 73.67 80.19 76.86V80.72H85.79V53.81H67.5V73.44ZM85.83 44.62H40.5C41.1512 46.4132 42.1735 48.0489 43.5 49.42C43.6972 49.6419 43.9412 49.8172 44.2145 49.9331C44.4878 50.049 44.7834 50.1026 45.08 50.09C58.33 50.09 71.58 50.09 84.82 50.09H85.82V44.62H85.83ZM84.62 40.83C81.9 37.08 78.45 34.76 74.02 34.53C68.79 34.26 63.55 34.39 58.29 34.43C55.4576 34.4317 52.6988 35.3315 50.41 37C48.9371 38.0016 47.6819 39.2908 46.72 40.79L84.62 40.83ZM89.55 50.09H90.55C91.99 50.09 93.47 50.09 94.91 50.09C95.1682 50.0679 95.4282 50.1018 95.6721 50.1893C95.9161 50.2769 96.1382 50.4162 96.3233 50.5975C96.5085 50.7789 96.6523 50.9981 96.7449 51.2401C96.8375 51.4822 96.8768 51.7414 96.86 52C96.88 52.303 96.88 52.607 96.86 52.91V79.31C96.8487 79.7345 96.8721 80.1593 96.93 80.58C96.9748 80.8412 97.0784 81.0888 97.2329 81.3041C97.3873 81.5194 97.5887 81.6969 97.8217 81.823C98.0548 81.9492 98.3134 82.0208 98.5782 82.0324C98.8429 82.044 99.1068 81.9953 99.35 81.89C99.7352 81.7282 100.058 81.4458 100.269 81.0851C100.48 80.7245 100.568 80.3051 100.52 79.89V50.53C100.52 47.53 98.94 45.16 96.33 44.82C94.0572 44.6489 91.7755 44.6289 89.5 44.76V50.12L89.55 50.09ZM87.67 102.59H43.67V106.14H87.67V102.59ZM54.8 80.72H76.5V77.16H54.8V80.72ZM65.63 24.2C66.811 23.8521 67.967 23.4244 69.09 22.92C69.96 22.48 69.89 21.85 69.09 21.24C68.0234 20.6252 66.8115 20.3075 65.5805 20.3198C64.3494 20.3321 63.1441 20.674 62.09 21.31C61.38 21.88 61.31 22.45 62.09 22.85C63.2467 23.3559 64.432 23.7933 65.64 24.16L65.63 24.2Z" fill="white"/>
</svg>
