<svg width="25" height="25" viewBox="0 0 25 25" fill="none" xmlns="http://www.w3.org/2000/svg">
<path d="M12.5 2.50012C15.217 2.50012 15.556 2.51012 16.622 2.56012C17.687 2.61012 18.412 2.77712 19.05 3.02512C19.71 3.27912 20.266 3.62312 20.822 4.17812C21.3305 4.67802 21.724 5.28271 21.975 5.95012C22.222 6.58712 22.39 7.31312 22.44 8.37812C22.487 9.44412 22.5 9.78312 22.5 12.5001C22.5 15.2171 22.49 15.5561 22.44 16.6221C22.39 17.6871 22.222 18.4121 21.975 19.0501C21.7247 19.7179 21.3311 20.3227 20.822 20.8221C20.322 21.3304 19.7173 21.7239 19.05 21.9751C18.413 22.2221 17.687 22.3901 16.622 22.4401C15.556 22.4871 15.217 22.5001 12.5 22.5001C9.783 22.5001 9.444 22.4901 8.378 22.4401C7.313 22.3901 6.588 22.2221 5.95 21.9751C5.28233 21.7246 4.67753 21.3311 4.178 20.8221C3.66941 20.3223 3.27593 19.7176 3.025 19.0501C2.777 18.4131 2.61 17.6871 2.56 16.6221C2.513 15.5561 2.5 15.2171 2.5 12.5001C2.5 9.78312 2.51 9.44412 2.56 8.37812C2.61 7.31212 2.777 6.58812 3.025 5.95012C3.27524 5.2823 3.6688 4.67744 4.178 4.17812C4.67767 3.66935 5.28243 3.27585 5.95 3.02512C6.588 2.77712 7.312 2.61012 8.378 2.56012C9.444 2.51312 9.783 2.50012 12.5 2.50012ZM12.5 7.50012C11.1739 7.50012 9.90215 8.02691 8.96447 8.96459C8.02678 9.90227 7.5 11.174 7.5 12.5001C7.5 13.8262 8.02678 15.098 8.96447 16.0357C9.90215 16.9733 11.1739 17.5001 12.5 17.5001C13.8261 17.5001 15.0979 16.9733 16.0355 16.0357C16.9732 15.098 17.5 13.8262 17.5 12.5001C17.5 11.174 16.9732 9.90227 16.0355 8.96459C15.0979 8.02691 13.8261 7.50012 12.5 7.50012ZM19 7.25012C19 6.9186 18.8683 6.60066 18.6339 6.36624C18.3995 6.13182 18.0815 6.00012 17.75 6.00012C17.4185 6.00012 17.1005 6.13182 16.8661 6.36624C16.6317 6.60066 16.5 6.9186 16.5 7.25012C16.5 7.58164 16.6317 7.89959 16.8661 8.13401C17.1005 8.36843 17.4185 8.50012 17.75 8.50012C18.0815 8.50012 18.3995 8.36843 18.6339 8.13401C18.8683 7.89959 19 7.58164 19 7.25012ZM12.5 9.50012C13.2956 9.50012 14.0587 9.81619 14.6213 10.3788C15.1839 10.9414 15.5 11.7045 15.5 12.5001C15.5 13.2958 15.1839 14.0588 14.6213 14.6214C14.0587 15.1841 13.2956 15.5001 12.5 15.5001C11.7044 15.5001 10.9413 15.1841 10.3787 14.6214C9.81607 14.0588 9.5 13.2958 9.5 12.5001C9.5 11.7045 9.81607 10.9414 10.3787 10.3788C10.9413 9.81619 11.7044 9.50012 12.5 9.50012Z" fill="white"/>
</svg>
