<svg width="25" height="25" viewBox="0 0 25 25" fill="none" xmlns="http://www.w3.org/2000/svg">
<path d="M22.6621 6.15593C21.8986 6.49362 21.089 6.7154 20.2601 6.81393C21.1338 6.29136 21.7878 5.46894 22.1001 4.49993C21.2801 4.98793 20.3811 5.32993 19.4441 5.51493C18.8147 4.84151 17.9804 4.39489 17.071 4.24451C16.1616 4.09413 15.228 4.24842 14.4153 4.68338C13.6026 5.11834 12.9564 5.80961 12.5772 6.64972C12.1979 7.48983 12.1068 8.43171 12.3181 9.32893C10.6552 9.24558 9.02838 8.81345 7.54334 8.06059C6.05829 7.30773 4.74818 6.25097 3.69805 4.95893C3.32634 5.59738 3.13101 6.32315 3.13205 7.06193C3.13205 8.51193 3.87005 9.79293 4.99205 10.5429C4.32806 10.522 3.67869 10.3427 3.09805 10.0199V10.0719C3.09825 11.0376 3.43242 11.9735 4.0439 12.721C4.65538 13.4684 5.50653 13.9814 6.45305 14.1729C5.83667 14.34 5.19036 14.3646 4.56305 14.2449C4.82992 15.0762 5.35006 15.8031 6.05064 16.324C6.75123 16.8449 7.59718 17.1337 8.47005 17.1499C7.60253 17.8313 6.60923 18.3349 5.54693 18.6321C4.48464 18.9293 3.37418 19.0142 2.27905 18.8819C4.19075 20.1114 6.41615 20.764 8.68905 20.7619C16.3821 20.7619 20.5891 14.3889 20.5891 8.86193C20.5891 8.68193 20.5841 8.49993 20.5761 8.32193C21.3949 7.73009 22.1017 6.99695 22.6631 6.15693L22.6621 6.15593Z" fill="white"/>
</svg>
