<svg width="25" height="25" viewBox="0 0 25 25" fill="none" xmlns="http://www.w3.org/2000/svg">
<path d="M22.043 6.998C22.5 8.78 22.5 12.5 22.5 12.5C22.5 12.5 22.5 16.22 22.043 18.002C21.789 18.987 21.046 19.762 20.105 20.024C18.396 20.5 12.5 20.5 12.5 20.5C12.5 20.5 6.607 20.5 4.895 20.024C3.95 19.758 3.208 18.984 2.957 18.002C2.5 16.22 2.5 12.5 2.5 12.5C2.5 12.5 2.5 8.78 2.957 6.998C3.211 6.013 3.954 5.238 4.895 4.976C6.607 4.5 12.5 4.5 12.5 4.5C12.5 4.5 18.396 4.5 20.105 4.976C21.05 5.242 21.792 6.016 22.043 6.998ZM10.5 16L16.5 12.5L10.5 9V16Z" fill="white"/>
</svg>
